<?xml version="1.0" encoding="UTF-8"?>
<svg width="243px" height="36px" viewBox="0 0 243 36" version="1.1" xmlns="http://www.w3.org/2000/svg" xmlns:xlink="http://www.w3.org/1999/xlink">
    <!-- Generator: Sketch 44.1 (41455) - http://www.bohemiancoding.com/sketch -->
    <title>LOGO</title>
    <desc>Created with Sketch.</desc>
    <defs></defs>
    <g id="Symbols" stroke="none" stroke-width="1" fill="none" fill-rule="evenodd">
        <g id="Nav-Desktop" transform="translate(-23.000000, -23.000000)">
            <g id="Nav">
                <g id="LOGO" transform="translate(23.000000, 23.000000)">
                    <path d="M29.0215957,12.6848955 C26.0770696,12.6848955 23.690387,15.1699701 23.690387,18.2358806 C23.690387,21.3012537 26.0770696,23.785791 29.0215957,23.785791 C31.9661217,23.785791 34.3528043,21.3012537 34.3528043,18.2358806 C34.3528043,15.1699701 31.9661217,12.6848955 29.0215957,12.6848955 M39.0258,18.2358806 C39.0258,23.8556418 34.5466761,28.4109851 29.0215957,28.4109851 C23.4965152,28.4109851 19.0173913,23.8556418 19.0173913,18.2358806 C19.0173913,12.6155821 23.4965152,8.05970149 29.0215957,8.05970149 C34.5466761,8.05970149 39.0258,12.6155821 39.0258,18.2358806" id="Fill-5" fill="#009DD6"></path>
                    <path d="M10.0020913,28.4082985 C4.48651957,28.4082985 0,23.8448955 0,18.2342687 C0,12.6236418 4.48651957,8.05970149 10.0020913,8.05970149 C12.6455087,8.05970149 15.0332478,9.02310448 17.0987478,10.9214328 C18.0559565,11.8015522 18.1304413,13.3022687 17.2656783,14.2758806 C16.400387,15.2505672 14.9228413,15.3252537 13.9672174,14.446209 C12.76965,13.3452537 11.4727696,12.6832836 10.0020913,12.6832836 C7.06231957,12.6832836 4.66982609,15.2435821 4.66982609,18.2342687 C4.66982609,21.2249552 7.06231957,23.7847164 10.0020913,23.7847164 C11.4727696,23.7847164 12.76965,23.1232836 13.9672174,22.0223284 C14.9228413,21.1432836 16.400387,21.2179701 17.2656783,22.1921194 C18.1304413,23.1657313 18.0559565,24.6669851 17.0987478,25.5471045 C15.0332478,27.4454328 12.6455087,28.4082985 10.0020913,28.4082985" id="Fill-7" fill="#009DD6"></path>
                    <path d="M80.7990848,23.7596129 C79.1804935,23.7596129 77.8249761,23.2357323 77.0420935,22.5060607 L77.0420935,13.9622398 C77.8249761,13.2325682 79.1804935,12.7092249 80.7990848,12.7092249 C83.8640543,12.7092249 85.7763587,15.1733443 85.7974891,18.2344189 C85.7763587,21.2954935 83.8640543,23.7596129 80.7990848,23.7596129 M80.8487413,8.08241891 C79.4361717,8.18289652 77.9153087,8.79435921 76.826563,9.64707563 C76.4583652,8.82767264 75.6501261,8.25597115 74.7066522,8.25597115 C73.4171674,8.25597115 72.3717391,9.31931443 72.3717391,10.6308965 L72.3717391,33.1561503 C72.3717391,34.4677323 73.4171674,35.5316129 74.7066522,35.5316129 C75.996137,35.5316129 77.0420935,34.4677323 77.0420935,33.1561503 L77.0420935,26.9920906 C78.1107652,27.7556129 79.5307304,28.2923891 80.8487413,28.3858816 C86.4023478,28.7813443 90.4482978,23.9589562 90.4482978,18.2344189 C90.4482978,12.5098816 86.4023478,7.68695622 80.8487413,8.08241891" id="Fill-9" fill="#009DD6"></path>
                    <path d="M97.0964609,18.2344189 C97.1175913,15.1733443 99.0298957,12.7092249 102.094865,12.7092249 C103.713457,12.7092249 105.068974,13.2325682 105.851857,13.9622398 L105.851857,22.506598 C105.068974,23.2357323 103.713457,23.7596129 102.094865,23.7596129 C99.0298957,23.7596129 97.1175913,21.2954935 97.0964609,18.2344189 M108.187298,8.23340398 C107.237485,8.23340398 106.423963,8.81209055 106.058935,9.64009055 C104.970717,8.79167264 103.453552,8.18235921 102.045209,8.08241891 C96.4910739,7.68695622 92.4456522,12.5098816 92.4456522,18.2344189 C92.4456522,23.9589562 96.4910739,28.7813443 102.045209,28.3864189 C103.453024,28.2864786 104.970189,27.6777025 106.057878,26.8292846 C106.422378,27.6583592 107.236957,28.2375831 108.187298,28.2375831 C109.476254,28.2375831 110.522211,27.1742398 110.522211,25.8626577 L110.522211,10.6083294 C110.522211,9.29674727 109.476254,8.23340398 108.187298,8.23340398" id="Fill-11" fill="#009DD6"></path>
                    <path d="M131.961678,18.2344189 C131.982809,15.1733443 133.894585,12.7092249 136.960083,12.7092249 C138.578674,12.7092249 139.934191,13.2325682 140.717074,13.9622398 L140.717074,22.506598 C139.934191,23.2357323 138.578674,23.7596129 136.960083,23.7596129 C133.894585,23.7596129 131.982809,21.2954935 131.961678,18.2344189 M143.051987,8.23340398 C142.102702,8.23340398 141.288652,8.81209055 140.924152,9.64009055 C139.835935,8.79167264 138.31877,8.18235921 136.909898,8.08241891 C131.356291,7.68695622 127.31087,12.5098816 127.31087,18.2344189 C127.31087,23.9589562 131.356291,28.7813443 136.909898,28.3864189 C138.318241,28.2864786 139.834878,27.6777025 140.923096,26.8292846 C141.287596,27.6583592 142.101646,28.2375831 143.051987,28.2375831 C144.341472,28.2375831 145.3869,27.1742398 145.3869,25.8626577 L145.3869,10.6083294 C145.3869,9.29674727 144.341472,8.23340398 143.051987,8.23340398" id="Fill-13" fill="#009DD6"></path>
                    <path d="M126.064174,9.03728171 C124.989163,8.3769235 123.604063,7.94223693 122.038826,8.08784887 C121.02298,8.18241604 119.678557,8.7288638 118.594565,9.60361007 C118.243272,8.7449832 117.410733,8.14050559 116.439261,8.14050559 C115.149776,8.14050559 114.104348,9.20438619 114.104348,10.515431 L114.104348,25.7697593 C114.104348,27.0813414 115.149776,28.1446847 116.439261,28.1446847 C117.728746,28.1446847 118.774702,27.0813414 118.774702,25.7697593 L118.774702,13.9622966 C119.623617,13.2202668 120.829109,12.711431 122.075276,12.675431 C122.726622,12.656625 123.296087,12.8242668 123.853402,13.1214011 C124.243259,13.3282668 124.665339,13.4094011 124.957467,13.4094011 C126.223709,13.4094011 127.249591,12.3659384 127.249591,11.0785354 C127.249591,10.1994907 126.820115,9.50152052 126.064174,9.03728171" id="Fill-15" fill="#009DD6"></path>
                    <path d="M61.0136022,8.07080421 C58.7373261,8.08584899 56.8123435,9.06752063 55.5202174,10.371043 C54.0585196,8.80531167 51.9961891,7.92787884 49.7061783,8.09068481 C48.4769152,8.1782669 47.1610174,8.77146093 46.1715848,9.59516242 C45.7965196,8.79295346 44.9993739,8.23414749 44.0675217,8.23414749 C42.778037,8.23414749 41.7326087,9.29802809 41.7326087,10.6096102 L41.7326087,25.8639385 C41.7326087,27.1749833 42.778037,28.2388639 44.0675217,28.2388639 C45.3575348,28.2388639 46.402963,27.1749833 46.402963,25.8639385 L46.402963,13.9742669 C47.2518783,13.2274012 48.4568413,12.6895505 49.7061783,12.6895505 C51.5186413,12.6895505 53.0115065,13.8388639 53.0379196,16.1342669 L53.0379196,25.8639385 C53.0379196,27.1749833 54.0833478,28.2388639 55.3728326,28.2388639 C56.6628457,28.2388639 57.7082739,27.1749833 57.7082739,25.8639385 L57.7082739,13.9774908 C58.5571891,13.2284759 59.7632087,12.6895505 61.0136022,12.6895505 C62.8265935,12.6895505 64.3427022,13.8968938 64.3427022,16.1342669 L64.3427022,25.8639385 C64.3427022,27.1749833 65.3881304,28.2388639 66.6781435,28.2388639 C67.9681565,28.2388639 69.0130565,27.1749833 69.0130565,25.8639385 L69.0130565,16.1342669 C69.0130565,11.3188639 65.3939413,7.83707287 61.0136022,8.07080421" id="Fill-17" fill="#009DD6"></path>
                    <path d="M183.495111,16.3096119 C184.13325,14.2006567 185.817346,12.6859701 188.200859,12.6859701 C190.403178,12.6859701 191.93355,14.3693731 192.39525,16.3096119 L183.495111,16.3096119 Z M188.200859,8.05970149 C182.531035,8.05970149 178.553759,12.4753433 178.552174,18.2342687 L178.552174,18.2353433 L178.552174,18.2374925 L178.552174,18.2385672 C178.553759,23.9797612 182.308109,28.412597 188.200859,28.412597 C190.680515,28.412597 193.464978,27.5185075 195.175487,25.3794627 C195.630848,24.8147463 195.833172,24.2484179 195.833172,23.6837015 C195.833172,22.3979104 194.771896,21.4216119 193.609193,21.4216119 C193.00275,21.4216119 192.447548,21.6784478 191.992715,22.1421493 C190.79462,23.310806 189.721722,23.7868657 188.200859,23.7868657 C185.710109,23.7868657 183.988507,22.1330149 183.421683,19.8736119 L194.751293,19.8736119 L194.753935,19.8736119 C196.008026,19.8736119 197.022815,18.8408955 197.022815,17.5658507 L197.022815,17.2090746 C197.022815,12.365194 193.07882,8.05970149 188.200859,8.05970149 L188.200859,8.05970149 Z" id="Fill-19" fill="#00498F"></path>
                    <path d="M217.082465,12.6848955 C214.138467,12.6848955 211.751257,15.1699701 211.751257,18.2358806 C211.751257,21.3012537 214.138467,23.785791 217.082465,23.785791 C220.026463,23.785791 222.413674,21.3012537 222.413674,18.2358806 C222.413674,15.1699701 220.026463,12.6848955 217.082465,12.6848955 M227.086141,18.2358806 C227.086141,23.8556418 222.607546,28.4109851 217.082465,28.4109851 C211.557385,28.4109851 207.078261,23.8556418 207.078261,18.2358806 C207.078261,12.6155821 211.557385,8.05970149 217.082465,8.05970149 C222.607546,8.05970149 227.086141,12.6155821 227.086141,18.2358806" id="Fill-21" fill="#00498F"></path>
                    <path d="M205.169126,3.05892537 C205.169126,4.74823881 203.822589,6.11785075 202.162265,6.11785075 C200.500885,6.11785075 199.154348,4.74823881 199.154348,3.05892537 C199.154348,1.36961194 200.500885,0 202.162265,0 C203.822589,0 205.169126,1.36961194 205.169126,3.05892537" id="Fill-23" fill="#00498F"></path>
                    <path d="M195.153297,35.1671642 C194.311249,35.1671642 193.497728,34.7029254 193.08093,33.8910448 C192.483995,32.7277612 192.926678,31.2931343 194.069834,30.6854328 C197.854295,28.6742687 199.61763,26.1558806 199.61763,22.7589851 L199.61763,10.4351642 C199.61763,9.12358209 200.663058,8.05970149 201.953071,8.05970149 C203.242556,8.05970149 204.287984,9.12358209 204.287984,10.4351642 L204.287984,22.7589851 C204.287984,27.9725373 201.578006,32.0561194 196.232534,34.8968955 C195.887051,35.0801194 195.517269,35.1671642 195.153297,35.1671642" id="Fill-25" fill="#00498F"></path>
                    <path d="M241.753304,9.03728171 C240.678293,8.3769235 239.293193,7.94223693 237.727957,8.08784887 C236.712111,8.18241604 235.367687,8.7288638 234.283696,9.60361007 C233.931874,8.7449832 233.099863,8.14050559 232.128391,8.14050559 C230.839435,8.14050559 229.793478,9.20438619 229.793478,10.515431 L229.793478,25.7697593 C229.793478,27.0813414 230.839435,28.1446847 232.128391,28.1446847 C233.417876,28.1446847 234.463304,27.0813414 234.463304,25.7697593 L234.463304,13.9622966 C235.312748,13.2202668 236.518239,12.711431 237.764407,12.675431 C238.41628,12.656625 238.985217,12.8242668 239.542533,13.1214011 C239.932389,13.3282668 240.35447,13.4094011 240.647126,13.4094011 C241.912839,13.4094011 242.938722,12.3659384 242.938722,11.0785354 C242.938722,10.1994907 242.509246,9.50152052 241.753304,9.03728171" id="Fill-27" fill="#00498F"></path>
                    <path d="M162.229441,10.371043 C160.767215,8.80531167 158.705413,7.92787884 156.415402,8.09068481 C155.185611,8.1782669 153.869713,8.77146093 152.88028,9.59516242 C152.505215,8.79295346 151.70807,8.23414749 150.776746,8.23414749 C149.486733,8.23414749 148.441304,9.29802809 148.441304,10.6096102 L148.441304,25.8639385 C148.441304,27.1749833 149.486733,28.2388639 150.776746,28.2388639 C152.06623,28.2388639 153.111659,27.1749833 153.111659,25.8639385 L153.111659,13.9742669 C153.960574,13.2274012 155.165537,12.6895505 156.415402,12.6895505 C158.227337,12.6895505 159.720202,13.8388639 159.746615,16.1342669 L159.746615,25.8639385 C159.746615,27.1749833 160.792043,28.2388639 162.081528,28.2388639 C163.37207,28.2388639 164.41697,27.1749833 164.41697,25.8639385 L164.41697,13.9774908 C165.265885,13.2284759 166.472433,12.6895505 167.722826,12.6895505 C169.535289,12.6895505 171.051926,13.8968938 171.051926,16.1342669 L171.051926,25.8639385 C171.051926,27.1749833 172.096826,28.2388639 173.386839,28.2388639 C174.676852,28.2388639 175.72228,27.1749833 175.72228,25.8639385 L175.72228,16.1342669 C175.72228,11.3188639 172.103165,7.83707287 167.722298,8.07080421 C165.446022,8.08584899 163.521567,9.06752063 162.229441,10.371043 Z" id="Fill-29" fill="#00498F"></path>
                </g>
            </g>
        </g>
    </g>
</svg>