<?xml version="1.0" encoding="utf-8"?>
<!-- Generator: Adobe Illustrator 21.1.0, SVG Export Plug-In . SVG Version: 6.00 Build 0)  -->
<svg version="1.1" id="Layer_1" xmlns="http://www.w3.org/2000/svg" xmlns:xlink="http://www.w3.org/1999/xlink" x="0px" y="0px"
	 viewBox="0 0 28 28" style="enable-background:new 0 0 28 28;" xml:space="preserve">
<style type="text/css">
	.st0{fill:#FFFFFF;}
</style>
<title>phone</title>
<desc>Created with Sketch.</desc>
<g id="Symbols">
	<g id="Nav-Desktop" transform="translate(-1134.000000, -27.000000)">
		<g id="Nav">
			<g id="telefono" transform="translate(1134.000000, 27.000000)">
				<g id="phone">
					<path id="Shape" class="st0" d="M22.3,27.8c-1.2,0-2.5-0.3-4.1-0.9c-3.4-1.3-7-3.8-10.3-7.1S2.1,12.9,0.9,9.5
						c-1.2-3.1-1.2-5.6,0-6.7C1,2.6,1.2,2.5,1.4,2.3c1-1.1,2.3-2.4,3.8-2.3c1.1,0,2.1,0.7,3.2,2.1c3.2,3.9,1.7,5.3,0.1,7L8.2,9.3
						c-0.3,0.3-0.8,1.5,4,6.3c1.6,1.6,2.9,2.7,3.9,3.4c0.7,0.4,1.9,1.1,2.3,0.6l0.3-0.3c1.6-1.7,3-3.1,7,0.1c1.3,1.1,2,2.1,2.1,3.2
						c0.1,1.6-1.2,2.8-2.3,3.8c-0.2,0.2-0.4,0.3-0.5,0.5C24.4,27.5,23.5,27.8,22.3,27.8z M5.1,0.9c-1.1,0-2.1,1.1-3,2
						C1.9,3.1,1.7,3.3,1.5,3.5C0.7,4.3,0.8,6.6,1.7,9.2c1.2,3.2,3.7,6.8,6.8,10s6.7,5.6,10,6.8c2.6,1,4.9,1.1,5.7,0.2
						c0.2-0.2,0.4-0.3,0.5-0.5c1-0.9,2-1.9,2-3.1c0-0.8-0.6-1.6-1.7-2.5c-3.3-2.6-4.2-1.7-5.7-0.2l-0.3,0.3
						c-0.7,0.7-1.9,0.6-3.5-0.5c-1.1-0.7-2.5-1.9-4.1-3.5l0,0c-3.9-3.9-5.2-6.4-4-7.6l0.3-0.3c1.5-1.5,2.5-2.4-0.2-5.7
						C6.8,1.5,5.9,1,5.1,0.9C5.1,0.9,5.1,0.9,5.1,0.9z"/>
					<path id="Shape_1_" class="st0" d="M22.5,11.5c-0.1,0-0.1,0-0.2,0c-0.2-0.1-0.4-0.4-0.3-0.6c0.6-1.5,0.3-3.1-0.9-4.2
						c-1.1-1.1-2.9-1.5-4.4-0.8c-0.2,0.1-0.5,0-0.6-0.2c-0.1-0.2,0-0.5,0.2-0.6c1.8-0.8,4-0.4,5.4,1c1.4,1.4,1.8,3.4,1.1,5.3
						C22.8,11.4,22.6,11.5,22.5,11.5z"/>
					<path id="Shape_2_" class="st0" d="M26.6,13.2c-0.1,0-0.1,0-0.2,0c-0.2-0.1-0.4-0.4-0.3-0.6c1.3-3.1,0.5-6.7-1.8-9.1
						c-2.5-2.5-6.2-3.2-9.4-1.7c-0.2,0.1-0.5,0-0.6-0.2c-0.1-0.2,0-0.5,0.2-0.6C18.1-0.8,22.3,0,25,2.7c2.7,2.7,3.5,6.6,2.1,10.1
						C27,13.1,26.8,13.2,26.6,13.2z"/>
				</g>
			</g>
		</g>
	</g>
</g>
</svg>
